<?xml version="1.0" encoding="UTF-8" standalone="no"?>
<!-- Created with Inkscape (http://www.inkscape.org/) -->

<svg
   width="14mm"
   height="8mm"
   viewBox="0 0 14 8"
   version="1.1"
   id="svg1"
   inkscape:version="1.3.2 (091e20ef0f, 2023-11-25)"
   sodipodi:docname="gamez.svg"
   xmlns:inkscape="http://www.inkscape.org/namespaces/inkscape"
   xmlns:sodipodi="http://sodipodi.sourceforge.net/DTD/sodipodi-0.dtd"
   xmlns="http://www.w3.org/2000/svg"
   xmlns:svg="http://www.w3.org/2000/svg">
  <sodipodi:namedview
     id="namedview1"
     pagecolor="#ffffff"
     bordercolor="#000000"
     borderopacity="0.25"
     inkscape:showpageshadow="2"
     inkscape:pageopacity="0.0"
     inkscape:pagecheckerboard="0"
     inkscape:deskcolor="#d1d1d1"
     inkscape:document-units="mm"
     inkscape:zoom="11.313709"
     inkscape:cx="48.215844"
     inkscape:cy="33.720155"
     inkscape:window-width="1914"
     inkscape:window-height="1047"
     inkscape:window-x="0"
     inkscape:window-y="0"
     inkscape:window-maximized="1"
     inkscape:current-layer="layer1" />
  <defs
     id="defs1" />
  <g
     inkscape:label="Layer 1"
     inkscape:groupmode="layer"
     id="layer1">
    <path
       style="fill:#e50101;stroke:#000000;stroke-width:0.2;stroke-linecap:round;stroke-dashoffset:721.861"
       d="M 7.6363234,2.4015999 8.0024366,2.7156346 Z"
       id="path8" />
    <g
       id="g16"
       transform="translate(1.3514484)">
      <path
         style="fill:#e50101;stroke:#000000;stroke-width:0.2;stroke-linecap:round;stroke-dashoffset:721.861"
         d="M 2.4464164,3.714964 3.7846116,0.81196004 8.3566674,0.77081032 9.1692911,3.529417 7.6010809,3.6695001 7.4084819,2.9832707 4.4199016,2.8769119 3.7612574,3.947551 Z"
         id="path1" />
      <path
         style="fill:#e50101;stroke:#000000;stroke-width:0.2;stroke-linecap:round;stroke-dashoffset:721.861"
         d="m 4.0235142,0.79568621 0.1740114,-0.55303814 1.067153,0.0489843 0.0347,0.46023204 z"
         id="path2" />
      <path
         style="fill:#e50101;stroke:#000000;stroke-width:0.2;stroke-linecap:round;stroke-dashoffset:721.861"
         d="m 6.7437391,0.75479756 0.03775,-0.49240912 1.1308911,-7.7735e-4 0.1098772,0.50198598 z"
         id="path3" />
      <ellipse
         style="fill:#e50101;stroke:#000000;stroke-width:0.2;stroke-linecap:round;stroke-dashoffset:721.861"
         id="path4"
         cx="4.487102"
         cy="1.8428493"
         rx="0.54060841"
         ry="0.50892687" />
      <ellipse
         style="fill:#e50101;stroke:#000000;stroke-width:0.2;stroke-linecap:round;stroke-dashoffset:721.861"
         id="path5"
         cx="4.4914989"
         cy="1.8227204"
         rx="0.12585504"
         ry="0.099680185" />
      <rect
         style="fill:#e50101;stroke:#000000;stroke-width:0.2;stroke-linecap:round;stroke-dashoffset:721.861"
         id="rect6"
         width="0.44833064"
         height="0.35385996"
         x="7.6235857"
         y="1.1496121" />
      <ellipse
         style="fill:#e50101;stroke:#000000;stroke-width:0.2;stroke-linecap:round;stroke-dashoffset:721.861"
         id="path6"
         cx="7.3584146"
         cy="2.0052783"
         rx="0.17880355"
         ry="0.16701213" />
      <path
         style="fill:#e50101;stroke:#000000;stroke-width:0.2;stroke-linecap:round;stroke-dashoffset:721.861"
         d="M 8.0305806,2.2209448 8.2327434,1.8323486 8.4263925,2.2014685 Z"
         id="path7" />
      <path
         style="fill:#e50101;stroke:#000000;stroke-width:0.2;stroke-linecap:round;stroke-dashoffset:721.861"
         d="M 7.5902724,2.7840731 7.9724008,2.3878946 Z"
         id="path9"
         sodipodi:nodetypes="ccc" />
    </g>
    <path
       style="fill:#e50101;stroke:#000000;stroke-width:0.2;stroke-linecap:round;stroke-dashoffset:721.861"
       d="m 2.280988,4.5105903 -1.0199901,0.03107 0.050773,2.1501137 1.3359966,0.1389216 0.071846,-1.0655782 -0.806277,-0.067864 0.07475,0.3765283 0.4800663,0.087816 -0.054631,0.3549579 -0.6996279,-0.077985 -0.098975,-1.4657925 z"
       id="path12" />
    <path
       style="fill:#e50101;stroke:#000000;stroke-width:0.2;stroke-linecap:round;stroke-dashoffset:721.861"
       d="M 3.2368476,6.9484428 4.2394568,4.528865 5.3199685,6.865148 4.8279973,6.9074591 4.4380705,5.8533713 4.0043809,5.9539225 3.5598645,6.9592695 Z"
       id="path13" />
    <path
       style="fill:#e50101;stroke:#000000;stroke-width:0.2;stroke-linecap:round;stroke-dashoffset:721.861"
       d="M 5.799039,7.0857564 6.2496945,7.1272378 6.4470639,6.0165276 6.8829935,6.4213461 7.4918185,5.8863999 7.9062193,6.9894362 8.505047,6.890005 8.141627,4.5389545 6.9703952,6.0054936 6.1841538,4.4354995 Z"
       id="path14" />
    <path
       style="fill:#e50101;stroke:#000000;stroke-width:0.2;stroke-linecap:round;stroke-dashoffset:721.861"
       d="m 9.0158919,7.1011144 1.5014671,-0.00693 0.04812,-0.5741463 -0.8984499,0.035342 -0.022318,-0.5057846 0.8259809,-0.00177 -0.004,-0.6092812 -0.9072019,0.043804 0.00618,-0.6274501 0.9027219,-0.038578 -0.01124,-0.5715743 -1.3293183,0.067283 z"
       id="path15"
       sodipodi:nodetypes="ccccccccccccc" />
    <path
       style="fill:#e50101;stroke:#000000;stroke-width:0.2;stroke-linecap:round;stroke-dashoffset:721.861"
       d="m 11.304306,4.1823367 1.801544,-0.01174 -1.354747,2.5222861 1.208566,0.010578 -0.137304,0.4605697 -1.519677,-0.1518224 1.373039,-2.5023749 z"
       id="path16" />
  </g>
</svg>
