<?xml version="1.0" encoding="UTF-8" standalone="no"?>
<!-- Created with Inkscape (http://www.inkscape.org/) -->

<svg
   width="58mm"
   height="86mm"
   viewBox="0 0 58 86"
   version="1.1"
   id="svg1"
   inkscape:version="1.3.2 (091e20ef0f, 2023-11-25)"
   sodipodi:docname="drungy_postcard.svg"
   xmlns:inkscape="http://www.inkscape.org/namespaces/inkscape"
   xmlns:sodipodi="http://sodipodi.sourceforge.net/DTD/sodipodi-0.dtd"
   xmlns="http://www.w3.org/2000/svg"
   xmlns:svg="http://www.w3.org/2000/svg">
  <sodipodi:namedview
     id="namedview1"
     pagecolor="#ffffff"
     bordercolor="#000000"
     borderopacity="0.25"
     inkscape:showpageshadow="2"
     inkscape:pageopacity="0.0"
     inkscape:pagecheckerboard="0"
     inkscape:deskcolor="#000000"
     inkscape:document-units="mm"
     inkscape:zoom="2"
     inkscape:cx="109.5"
     inkscape:cy="198.25"
     inkscape:window-width="1914"
     inkscape:window-height="1047"
     inkscape:window-x="0"
     inkscape:window-y="0"
     inkscape:window-maximized="1"
     inkscape:current-layer="layer1" />
  <defs
     id="defs1">
    <inkscape:perspective
       sodipodi:type="inkscape:persp3d"
       inkscape:vp_x="0 : -62.500086 : 1"
       inkscape:vp_y="0 : 999.99993 : 0"
       inkscape:vp_z="210.00015 : -62.500086 : 1"
       inkscape:persp3d-origin="105.00003 : -111.99997 : 1"
       id="perspective7" />
  </defs>
  <g
     inkscape:label="Layer 1"
     inkscape:groupmode="layer"
     id="layer1"
     transform="translate(-21.32406,-9.4520955)">
    <path
       id="rect7"
       style="opacity:1;fill:#fffbea;fill-opacity:1;stroke:#000000;stroke-width:0.264999;stroke-opacity:1"
       d="m 28.786873,15.090552 c -0.860551,0 -1.553393,0.692842 -1.553393,1.553393 v 71.616301 c 0,0.860551 0.692842,1.553393 1.553393,1.553393 h 43.074374 c 0.860551,0 1.553393,-0.692842 1.553393,-1.553393 V 16.643945 c 0,-0.860551 -0.692842,-1.553393 -1.553393,-1.553393 z m 0.921908,3.53105 a 1.1815453,1.2499222 0 0 1 1.181323,1.250053 1.1815453,1.2499222 0 0 1 -1.181323,1.250053 1.1815453,1.2499222 0 0 1 -1.18184,-1.250053 1.1815453,1.2499222 0 0 1 1.18184,-1.250053 z m 0,32.456417 a 1.1815453,1.2499222 0 0 1 1.181323,1.250053 1.1815453,1.2499222 0 0 1 -1.181323,1.250053 1.1815453,1.2499222 0 0 1 -1.18184,-1.250053 1.1815453,1.2499222 0 0 1 1.18184,-1.250053 z m 0,32.456417 a 1.1815453,1.2499222 0 0 1 1.181323,1.250053 1.1815453,1.2499222 0 0 1 -1.181323,1.250053 1.1815453,1.2499222 0 0 1 -1.18184,-1.250053 1.1815453,1.2499222 0 0 1 1.18184,-1.250053 z" />
    <text
       xml:space="preserve"
       style="font-size:3.175px;fill:#f9f9f9;stroke-width:0.264999"
       x="51.915279"
       y="50.960102"
       id="text7"><tspan
         sodipodi:role="line"
         id="tspan7"
         style="stroke-width:0.265"
         x="51.915279"
         y="50.960102" /></text>
    <rect
       style="opacity:1;fill:#ffffff;fill-opacity:1;stroke:#000000;stroke-width:0.393836;stroke-opacity:1"
       id="rect16"
       width="34.686096"
       height="21.180271"
       x="31.473448"
       y="24.714066"
       ry="0"
       transform="rotate(-6.3096178)" />
    <rect
       style="opacity:0.893006;fill:#d5d7bd;fill-opacity:1;stroke:#000000;stroke-width:0;stroke-dasharray:none;stroke-opacity:1"
       id="rect17"
       width="5.7990179"
       height="2.0064528"
       x="2.5822203"
       y="39.196384"
       transform="rotate(-50.098524)" />
    <rect
       style="opacity:0.893006;fill:#d5d7bd;fill-opacity:1;stroke:#000000;stroke-width:0;stroke-dasharray:none;stroke-opacity:1"
       id="rect17-5"
       width="6.9747524"
       height="2.0066655"
       x="36.892586"
       y="67.536537"
       transform="matrix(0.85602039,-0.51694206,0.50999888,0.86017506,0,0)" />
    <path
       style="opacity:0.893006;fill:none;fill-opacity:1;stroke:#000000;stroke-width:0.499999;stroke-dasharray:none;stroke-opacity:1"
       d="m 34.332529,48.970911 c -0.333367,-0.03298 -0.51149,-0.120335 -0.596863,0.237712 -0.02162,0.09066 -0.04356,0.214046 0.03876,0.287838 0.563435,0.505095 1.288467,-1.061612 1.445646,-1.329891 0.11625,-0.198422 0.260453,-0.484063 0.31006,-0.422974 0.352504,0.434089 0.0127,2.183196 0.480592,2.374016 0.365053,0.148887 0.786664,-0.887298 0.786772,-0.887285 0.328573,0.04381 0.35641,0.736386 0.717011,0.778248 0.105994,0.0123 0.169746,-0.09918 0.259672,-0.119891 0.108146,-0.0249 0.168839,0.199689 0.302308,0.102579 0.281112,-0.20453 0.210045,-0.636132 0.352692,-0.913381 0.152379,-0.296161 -0.07374,0.597506 0.151154,0.669211 0.238191,0.07594 0.513786,-0.189193 0.701508,-0.289907 0.0489,-0.02625 0.103146,0.190907 0.182158,0.163558 0.283739,-0.09822 0.361045,-0.890035 0.589113,-1.066086 0.0058,-0.0044 0.108368,0.553043 0.124024,0.597379 0.07414,0.209989 0.290134,0.175411 0.449582,0.279053 0.123492,0.08027 0.124307,0.281848 0.244174,0.381373 0.199001,0.165233 0.485463,-0.07055 0.678251,-0.133067 0.134374,-0.04358 0.279361,-0.03922 0.372071,-0.0478 0.150696,-0.01394 0.135651,-0.08844 0.135651,0.0021 0,0.04266 -0.03025,-0.08016 -0.03876,-0.121957"
       id="path18" />
    <path
       style="opacity:0.893006;fill:none;fill-opacity:1;stroke:#000000;stroke-width:0.499999;stroke-dasharray:none;stroke-opacity:1"
       d="m 39.394235,47.381604 c -0.06395,-0.173821 -0.170304,-0.231069 -0.100769,-0.348816 0.0053,-0.009 0.0049,0.0204 0.0078,0.03049 0.03047,0.106267 -0.0108,0.356311 0.09302,0.318328 0.137536,-0.05032 0.351317,-0.3946 0.182161,-0.542862 -0.114724,-0.100552 -0.537192,0.513371 -0.182161,0.542862 0.202941,0.01685 0.35604,-0.733253 0.170532,-0.33564 -0.05306,0.113726 -0.113686,0.223761 -0.170532,0.33564 z"
       id="path19" />
    <path
       style="opacity:0.893006;fill:none;fill-opacity:1;stroke:#000000;stroke-width:0.499999;stroke-dasharray:none;stroke-opacity:1"
       d="m 45.172952,49.821247 c 0.02585,1.192933 -0.104902,-0.197855 1.840974,-0.865579 0.172598,-0.05923 0.180901,1.10929 0.403077,1.16427 0.417644,0.103349 0.895992,-0.49185 1.325498,-0.521158 0.544256,-0.03714 0.635183,0.380283 0.922425,0.453462 0.310161,0.07902 0.531874,-0.489643 0.755769,-0.614691 0.416335,-0.232531 0.393867,0.711245 0.465088,0.702025 0.197215,-0.02553 0.315129,-0.397566 0.445709,-0.518832 0.03012,-0.02797 0.08653,0.299857 0.294555,0.141594 0.15281,-0.116255 0.26919,-0.278146 0.426331,-0.390157"
       id="path20" />
    <path
       style="opacity:0.893006;fill:none;fill-opacity:1;stroke:#000000;stroke-width:0.499999;stroke-dasharray:none;stroke-opacity:1"
       d="m 55.734322,50.065418 c 0.369129,-0.313759 0.276485,-0.333624 0.740267,-0.38163 0.200237,-0.02072 0.212419,0.613098 0.387573,0.695566 0.248168,0.116845 0.74209,-0.474035 0.910796,-0.573352 0.458997,-0.270206 0.920964,0.151638 1.403017,-0.0633 0.423566,-0.188865 1.640845,-1.264537 1.437896,0.09147"
       id="path21" />
    <path
       style="opacity:0.893006;fill:none;fill-opacity:1;stroke:#000000;stroke-width:0.499999;stroke-dasharray:none;stroke-opacity:1"
       d="M 35.913827,56.747441 C 35.35993,56.415497 35.52064,56.660179 35.6309,55.82295 c 0.0092,-0.06944 0.01527,-0.267576 0.04651,-0.204899 0.100225,0.201031 0.142539,0.450612 0.178285,0.66275 0.02604,0.154569 -0.09027,0.416176 0.05813,0.46664 0.41902,0.142483 0.648607,-0.557011 0.875916,-0.732515 0.0685,-0.05289 0.10368,0.136425 0.189913,0.06744 0.286927,-0.229542 0.348647,-0.649599 0.600736,-0.908986 0.187595,-0.193025 0.225573,0.764513 0.279054,0.819586 0.102695,0.105757 0.582654,-0.244927 0.658873,-0.276728 0.218054,-0.09097 0.471376,-0.04465 0.68213,-0.148309 0.379127,-0.18647 0.88518,-1.05551 1.37201,-0.863256 0.225055,0.08888 0.234424,0.36037 0.449586,0.468707"
       id="path22" />
    <path
       style="opacity:0.893006;fill:none;fill-opacity:1;stroke:#000000;stroke-width:0.499999;stroke-dasharray:none;stroke-opacity:1"
       d="m 44.793132,55.567926 c 0.180922,0.45444 0.477692,0.02474 0.701506,0.100251 0.144391,0.04872 0.152133,0.296317 0.368194,0.216008 0.275704,-0.102478 0.494689,-0.530873 0.802278,-0.527616 0.402254,0.0043 0.190791,0.764138 0.368194,0.957048 0.111924,0.121706 0.350911,-0.245152 0.430207,-0.29223 0.174374,-0.103528 0.06518,0.401495 0.220916,0.30515 0.11262,-0.06968 0.451017,-0.692542 0.542603,-0.645182 0.104518,0.05405 0.0805,0.659937 0.112397,0.647505 0.271039,-0.105635 0.441394,-0.381633 0.678252,-0.538467 0.221736,-0.146823 0.534749,-0.09658 0.643371,-0.174408 0.317773,-0.227682 0.584494,-0.819155 0.99994,-0.876432 0.523031,-0.07211 0.265496,2.308174 1.011565,1.842264 0.212239,-0.132538 1.055701,-1.331428 1.232483,-1.303798 0.190687,0.02981 0.110238,0.635109 0.352692,0.730189 0.379592,0.14886 0.941229,-0.814104 1.426271,-0.869714 0.342897,-0.03931 0.417859,0.369697 0.724762,0.390157 0.43542,0.02903 0.672706,-0.831686 1.081328,-0.723728 0.216721,0.05726 0.132281,0.440571 0.348816,0.514437 0.30502,0.104056 0.52708,-0.330017 0.763519,-0.442608 0.320609,-0.15267 0.391488,0.366014 0.713134,0.370779 0.02217,2.65e-4 0.669547,-0.16452 0.693756,-0.165624 0.375743,-0.01709 0.403945,0.435301 0.550355,0.677995 0.06534,0.108307 0.152445,0.201883 0.228669,0.302826"
       id="path23" />
    <path
       style="opacity:0.893006;fill:none;fill-opacity:1;stroke:#000000;stroke-width:0.499999;stroke-dasharray:none;stroke-opacity:1"
       d="m 35.227823,61.929552 c 0.285512,-0.244171 0.483949,-0.684398 0.856538,-0.732513 0.230807,-0.0298 0.09461,0.713521 0.310058,0.625544 0.258961,-0.105743 0.395004,-0.41893 0.654999,-0.547253 0.169188,-0.08351 0.382162,-0.101968 0.558105,-0.174408 0.245935,-0.101259 0.458149,-0.253455 0.686006,-0.387832 0.01979,-0.01167 0.28806,-0.195871 0.34494,-0.170275 0.08453,0.03804 0.06743,0.173103 0.205412,0.161488 0.230545,-0.01939 0.45634,-0.41293 0.565859,-0.416509 0.205319,-0.0067 -0.07713,1.00081 0.18991,1.129387 0.279482,0.134564 0.794104,-0.287385 1.197602,-0.141851 0.192921,0.06958 0.991079,0.771832 1.050322,0.750083 0.301191,-0.11057 0.437422,-0.558245 0.631745,-0.78264 0.452356,-0.522365 0.217935,0.62802 0.682128,-0.396875 0.06551,-0.144643 0.385262,-0.997009 0.569732,-1.085723 0.0671,-0.03227 0.121965,0.09793 0.147278,0.167949 0.0705,0.195025 0.190553,1.436315 0.368197,1.462961 0.125031,0.01876 0.284906,-0.05304 0.403074,-0.08501 0.225224,-0.06093 0.446135,-0.01159 0.655,-0.159163 0.531233,-0.375319 0.854509,-1.055354 1.499907,-1.275376 0.870019,-0.296595 0.871156,0.981768 1.255739,1.279768 0.231796,0.17961 0.425349,-0.374425 0.612365,-0.355534 0.10881,0.01098 0.07778,0.306848 0.15503,0.374912 0.125127,0.110247 0.374901,-0.268957 0.437957,-0.176474 0.120541,0.176792 0.05023,0.525534 0.21704,0.660683 0.28154,0.228095 0.572315,-0.734576 0.84491,-0.756544 0.220617,-0.01778 0.282575,0.380875 0.515474,0.337965 0.339125,-0.06248 0.442611,-0.521107 0.759643,-0.617019 0.341722,-0.103378 0.400351,0.411284 0.565856,0.56896 0.131331,0.125116 0.353698,-0.325331 0.418579,-0.370522 0.178189,-0.124108 0.512744,-0.08654 0.71701,-0.12428"
       id="path24" />
    <path
       style="opacity:0.893006;fill:none;fill-opacity:1;stroke:#000000;stroke-width:0.499999;stroke-dasharray:none;stroke-opacity:1"
       d="m 38.710298,83.99668 c -0.141682,-0.383789 -0.540226,-0.564685 -0.748017,-0.894001 -0.14655,-0.232262 -0.199953,-0.505735 -0.321685,-0.749826 -0.116078,-0.232752 -0.333905,-0.385795 -0.476716,-0.599446 -0.09963,-0.149055 -0.158462,-0.316462 -0.255797,-0.466637 -0.25814,-0.398275 -0.434721,-0.608849 -0.550354,-1.094507 -0.154464,-0.648754 0.218591,-1.849761 1.050324,-1.820305 0.383794,0.0136 0.706491,0.341374 0.965057,0.582137 0.309047,0.287768 0.428607,0.595762 0.511596,1.004847 0.01947,0.09597 0.0317,0.517216 0.112398,0.584462 0.02368,0.01974 -0.01289,-0.06093 -0.01162,-0.09172 0.0057,-0.140711 0.0105,-0.199023 0.04263,-0.350886 0.133022,-0.62897 0.334285,-1.211799 0.922425,-1.537115 0.06363,-0.0352 0.240202,-0.149328 0.321685,-0.145984 0.332365,0.01363 0.592987,0.395663 0.592987,0.693238 0,1.071411 -0.456232,2.026737 -0.720886,3.034699 -0.05807,0.221173 -0.0758,0.45085 -0.1279,0.673603 -0.104248,0.445722 -0.243112,0.877075 -0.352689,1.31904 -0.02791,0.112557 -0.11737,0.111847 -0.224793,0.16795 -0.245793,0.128357 -0.688401,0.105606 -0.705385,0.0044 -0.01736,-0.103487 -0.0155,-0.209291 -0.02326,-0.313936 z"
       id="path26" />
    <path
       style="opacity:0.893006;fill:none;fill-opacity:1;stroke:#000000;stroke-width:0.499999;stroke-dasharray:none;stroke-opacity:1"
       d="m 42.419375,80.813671 c 0.465836,0.976736 0.561309,2.093605 0.728636,3.156654 0.02683,0.170449 0.285832,1.311346 -0.06589,0.490669"
       id="path28" />
    <path
       style="opacity:0.893006;fill:none;fill-opacity:1;stroke:#000000;stroke-width:0.499999;stroke-dasharray:none;stroke-opacity:1"
       d="m 42.411623,81.192975 c 0.126828,-0.08511 0.175083,-0.290497 0.294555,-0.398942 0.162851,-0.147817 0.522388,-0.159265 0.728639,-0.161229 0.6868,-0.0065 1.123662,0.456769 1.341004,1.054973 0.04516,0.12431 0.123026,0.259525 0.131773,0.394809 0.0137,0.212095 0.01003,0.428268 0.01161,0.640786 0.0013,0.169051 0.01662,0.37409 -0.02326,0.540796 -0.08331,0.348236 -0.311846,0.720886 -0.600739,0.93741 -0.189545,0.142063 -0.497983,0.176475 -0.720886,0.176475 -0.15598,0 -0.181383,0.567052 -0.232545,0.207221"
       id="path29" />
    <path
       style="opacity:0.893006;fill:none;fill-opacity:1;stroke:#000000;stroke-width:0.499999;stroke-dasharray:none;stroke-opacity:1"
       d="m 46.337741,80.920383 c 0.141224,0.851172 0.199628,1.712081 0.306181,2.568318 0.01503,0.120782 0.18216,0.709692 0.18216,0.821915 0,0.04439 -0.05066,-0.07336 -0.06976,-0.11343 -0.121848,-0.255513 -0.169592,-0.5291 -0.224792,-0.804344 -0.0779,-0.388419 -0.454292,-2.113542 -0.193786,-2.472459 0.113133,-0.155877 0.282342,-0.262748 0.43408,-0.381373 0.08313,-0.06499 0.337405,0.01736 0.418579,0.03256 0.624065,0.116784 0.968613,0.355674 0.81003,1.064019 -0.09162,0.409202 -0.441441,0.407548 -0.767398,0.499192 -0.143785,0.04043 -0.271655,0.09363 -0.422452,0.07855 -0.05295,-0.0053 -0.211592,-0.0227 -0.158906,-0.01524 0.185264,0.02625 1.495949,0.948002 1.674315,1.157552 0.108429,0.127384 0.154387,0.295447 0.251923,0.431758 0.151958,0.212365 0.33823,0.211241 0.28293,0.501261"
       id="path30" />
    <path
       style="opacity:0.893006;fill:none;fill-opacity:1;stroke:#000000;stroke-width:0.499999;stroke-dasharray:none;stroke-opacity:1"
       d="m 49.75226,80.643655 c 0.02262,0.680019 0.325816,1.207799 0.647248,1.776637 0.186946,0.330841 0.462248,0.558472 0.740264,0.811062 0.198705,0.18053 0.586798,0.682845 0.918549,0.505912 0.389625,-0.207801 0.371395,-1.749726 0.337187,-2.140955 -0.0159,-0.182036 -0.08299,-0.334439 -0.120147,-0.510048 -0.04984,-0.235585 0.05304,-0.433268 -0.158903,-0.518829"
       id="path31" />
    <path
       style="opacity:0.893006;fill:none;fill-opacity:1;stroke:#000000;stroke-width:0.499999;stroke-dasharray:none;stroke-opacity:1"
       d="m 53.957428,80.414729 c 0.238083,0.664353 0.351539,1.358385 0.49997,2.044835 0.02895,0.133898 0.61014,2.096315 0.678254,2.173513 0.05438,0.06163 -0.23745,-1.054709 -0.232545,-1.065827 0.0075,-0.01699 0.0086,0.0673 0.01937,0.05219 0.0063,-0.0088 -0.106127,-0.27133 -0.131773,-0.346747 -0.02514,-0.07389 -0.115081,-0.405225 -0.06589,-0.422714 0.05914,-0.02103 -0.167939,-0.204827 -0.18991,-0.226859 -0.150495,-0.150932 -0.250323,-0.347821 -0.368195,-0.523224 -0.06716,-0.09994 -0.318989,-0.249992 -0.294555,-0.39455 0.01117,-0.0661 0.137628,-0.199429 0.186034,-0.226859 0.0717,-0.04063 -0.120444,-0.23328 -0.03876,-0.244173 0.03958,-0.0053 0.01881,0.0076 0.0039,-0.05865 -0.01344,-0.05962 -0.0123,-0.131297 -0.02713,-0.18965 -0.02606,-0.102476 -0.455789,-0.469141 -0.03876,-0.571284 0.153164,-0.03751 0.401306,0.167807 0.550354,0.263809 0.354592,0.228385 0.758137,0.474718 1.050324,0.787032 0.276847,0.295918 0.439375,0.704244 0.654998,1.042053 0.143052,0.224113 0.325763,0.428141 0.488344,0.638723 0.185809,0.240668 0.374263,0.469921 0.515472,0.741296 0.02686,0.05164 0.167737,0.284433 0.174408,0.250632 0.176921,-0.896408 -0.151567,-1.826641 -0.193787,-2.720763 -0.01765,-0.373483 0.26601,-1.11165 0.0078,-1.427821"
       id="path32" />
    <path
       style="opacity:0.893006;fill:none;fill-opacity:1;stroke:#000000;stroke-width:0.499999;stroke-dasharray:none;stroke-opacity:1"
       d="m 60.728333,80.002609 c -0.102061,-0.03049 -0.201645,-0.07103 -0.306181,-0.09147 -0.207135,-0.0405 -0.672833,0.725164 -0.744141,0.852403 -0.774044,1.381135 -0.280114,3.573917 1.368134,4.013448 0.265575,0.07082 0.564711,0.181414 0.84491,0.117824 0.155479,-0.03529 0.288877,-0.151177 0.40695,-0.248565 0.124741,-0.102886 0.261567,-0.192344 0.37207,-0.311608 0.382442,-0.412763 0.424823,-1.157361 0.275178,-1.672248 -0.112181,-0.385988 -0.699257,-0.589407 -1.038696,-0.398944 -0.128937,0.07235 -0.290079,0.260416 -0.337188,0.364061 -0.01069,0.02352 -0.07568,0.05364 -0.05038,0.05891 0.02593,0.0054 0.06778,-0.06671 0.112395,-0.09819"
       id="path33" />
    <path
       style="opacity:0.893006;fill:none;fill-opacity:1;stroke:#000000;stroke-width:0.499999;stroke-dasharray:none;stroke-opacity:1"
       d="m 64.778474,80.253498 c 0.204536,0.151923 0.433334,0.283316 0.616241,0.464314 0.488272,0.483174 0.598456,0.709129 0.949555,1.268656 0.02426,0.03866 0.404659,0.754298 0.186036,0.564822"
       id="path34" />
    <path
       style="opacity:0.893006;fill:none;fill-opacity:1;stroke:#000000;stroke-width:0.499999;stroke-dasharray:none;stroke-opacity:1"
       d="m 68.014712,79.972121 c -0.136623,0.634971 -0.38153,1.188265 -0.686007,1.752865 -0.06325,0.117284 -0.109109,0.258347 -0.193786,0.361733 -0.174969,0.21363 -0.375039,0.369631 -0.519348,0.617019 -0.144267,0.247311 -0.177432,0.553241 -0.313933,0.795816 -0.225886,0.401413 -0.429774,0.806508 -0.62787,1.229641 -0.201697,0.430826 -0.197985,0.962451 -0.577485,1.301469 -0.04028,0.03599 0.03475,-0.10233 0.05426,-0.152702 0.04377,-0.113011 0.08492,-0.221543 0.147278,-0.326855"
       id="path35" />
    <ellipse
       style="opacity:1;fill:none;fill-opacity:1;stroke:#000000;stroke-width:0.499999;stroke-dasharray:none;stroke-opacity:1"
       id="path36"
       cx="55.500229"
       cy="27.154608"
       rx="2.7307119"
       ry="2.5944798" />
    <path
       style="opacity:1;fill:none;fill-opacity:1;stroke:#000000;stroke-width:0.499999;stroke-dasharray:none;stroke-opacity:1"
       d="m 55.710552,29.847402 -0.0075,4.068487 -1.381045,1.526521"
       id="path37" />
    <path
       style="opacity:1;fill:none;fill-opacity:1;stroke:#000000;stroke-width:0.499999;stroke-dasharray:none;stroke-opacity:1"
       d="m 55.673474,30.943717 -1.989283,1.125514"
       id="path38" />
    <path
       style="opacity:1;fill:none;fill-opacity:1;stroke:#000000;stroke-width:0.499999;stroke-dasharray:none;stroke-opacity:1"
       d="m 57.743196,31.951853 -2.074733,-0.95891"
       id="path38-2" />
    <path
       style="opacity:1;fill:none;fill-opacity:1;stroke:#000000;stroke-width:0.499999;stroke-dasharray:none;stroke-opacity:1"
       d="m 55.790393,33.941856 0.57813,2.268466 c 0.260574,-0.08501 0.842478,-0.341452 1.120733,-0.341452"
       id="path40"
       sodipodi:nodetypes="ccc" />
    <path
       style="opacity:1;fill:none;fill-opacity:1;stroke:#000000;stroke-width:0.499999;stroke-dasharray:none;stroke-opacity:1"
       d="m 54.338026,35.401326 0.213037,0.264068 -0.958985,-0.809124"
       id="path41"
       sodipodi:nodetypes="ccc" />
    <path
       style="opacity:1;fill:none;fill-opacity:1;stroke:#000000;stroke-width:0.499999;stroke-dasharray:none;stroke-opacity:1"
       d="m 54.226663,26.13781 c -0.01103,0.05404 -0.02617,0.107411 -0.03307,0.162135 -0.02474,0.196043 -0.07516,0.275297 -0.11653,0.449456 -0.0051,0.02146 0.007,0.04523 0,0.06615 -0.0049,0.01479 -0.02609,0.01913 -0.03307,0.03307 -0.01442,0.02886 -0.06615,0.279249 -0.06615,0.310316"
       id="path42" />
    <path
       style="opacity:1;fill:none;fill-opacity:1;stroke:#000000;stroke-width:0.499999;stroke-dasharray:none;stroke-opacity:1"
       d="m 56.429888,26.538044 c -0.107749,0.207539 -0.126476,0.520912 -0.23332,0.732512 -0.02199,0.04354 0.02183,0.120055 0,0.163687 -0.007,0.01394 -0.0259,0.01924 -0.03307,0.03307 -0.01389,0.0268 0.0154,0.0753 0,0.101415 -0.03639,0.06176 -0.02816,-0.0635 -0.02816,0.02469"
       id="path43" />
    <path
       style="opacity:1;fill:none;fill-opacity:1;stroke:#000000;stroke-width:0.499999;stroke-dasharray:none;stroke-opacity:1"
       d="m 54.028744,27.988731 c 0.126191,0.168613 0.270373,0.344818 0.439378,0.473355 0.127563,0.09702 0.355071,0.115147 0.504878,0.165365 0.124708,0.0418 0.242133,0.104084 0.367808,0.142885 0.155178,0.04791 0.315097,0.05211 0.460954,0.108262 0.11222,0.0432 0.306287,0 0.429948,0"
       id="path44" />
  </g>
</svg>
