<?xml version="1.0" encoding="UTF-8" standalone="no"?>
<!-- Created with Inkscape (http://www.inkscape.org/) -->

<svg
   width="89mm"
   height="56mm"
   viewBox="0 0 89 56"
   version="1.1"
   id="svg1"
   inkscape:version="1.3.2 (091e20ef0f, 2023-11-25)"
   sodipodi:docname="TODO.svg"
   xmlns:inkscape="http://www.inkscape.org/namespaces/inkscape"
   xmlns:sodipodi="http://sodipodi.sourceforge.net/DTD/sodipodi-0.dtd"
   xmlns="http://www.w3.org/2000/svg"
   xmlns:svg="http://www.w3.org/2000/svg">
  <sodipodi:namedview
     id="namedview1"
     pagecolor="#ffffff"
     bordercolor="#000000"
     borderopacity="0.25"
     inkscape:showpageshadow="2"
     inkscape:pageopacity="0.0"
     inkscape:pagecheckerboard="0"
     inkscape:deskcolor="#d1d1d1"
     inkscape:document-units="mm"
     inkscape:zoom="8.8089156"
     inkscape:cx="180.44219"
     inkscape:cy="69.531827"
     inkscape:window-width="1914"
     inkscape:window-height="1047"
     inkscape:window-x="0"
     inkscape:window-y="0"
     inkscape:window-maximized="1"
     inkscape:current-layer="layer1" />
  <defs
     id="defs1" />
  <g
     inkscape:label="Layer 1"
     inkscape:groupmode="layer"
     id="layer1">
    <rect
       style="fill:#eeff99;fill-opacity:1;stroke:#000000;stroke-width:0.2;stroke-linecap:round;stroke-dashoffset:721.861"
       id="rect1"
       width="79.759277"
       height="47.428963"
       x="4.8817654"
       y="4.6292768"
       ry="5.648149" />
    <path
       style="fill:#eeff99;fill-opacity:1;stroke:#000000;stroke-width:0.2;stroke-linecap:round;stroke-dashoffset:721.861"
       d="m 44.741224,4.7165677 0.04036,47.2543813 z"
       id="path1" />
    <path
       style="fill:#000000;fill-opacity:1;stroke:#000000;stroke-width:0.2;stroke-linecap:round;stroke-dashoffset:721.861"
       d="m 11.550789,6.622448 c -0.104175,0.7972446 -0.153996,1.6018171 -0.1792,2.4052667 -0.0044,0.1399826 -0.005,0.2800736 -0.005,0.420125 0,0.4648552 0.03982,1.1123523 0.03982,1.5036233 0,0.109676 -0.09256,0.443446 -0.01,0.515035 0.02436,0.02111 0.03774,-0.07129 0.06969,-0.06703 0.178259,0.02377 0.37201,0.0022 0.557512,-0.0086 0.511181,-0.02986 1.020596,-0.04321 1.528181,-0.117476 0.483405,-0.07073 1.650994,-0.333377 2.110581,-0.246566 0.01447,0.0027 -0.02489,0.02178 -0.02489,0.0365 0,0.06944 -0.01169,0.145999 -0.01493,0.215704 -0.02136,0.459042 -0.05492,0.914911 -0.05973,1.374865 -0.0088,0.837968 0.169132,1.659033 0.149333,2.494535 -0.01716,0.724305 -0.188242,1.821111 -0.08462,2.525729 0.0026,0.01788 0.0032,-0.04364 0.01991,-0.05044 0.07005,-0.02845 0.162969,-0.02732 0.228978,-0.0365 0.289465,-0.04026 0.568482,-0.08815 0.861157,-0.100552 0.588372,-0.02493 1.239641,-0.0059 1.826848,0.06139 0.240295,0.02752 0.478667,0.08765 0.721779,0.0813 0.0715,-0.0019 0.123165,-1.031961 0.124445,-1.139581 0.01553,-1.306154 -0.209067,-2.600021 -0.209067,-3.900594 0,-0.438372 0.11548,-0.861383 0.149333,-1.296216 0.0093,-0.119732 -0.0036,-0.1975 0.01493,-0.394905 0.0063,-0.190891 0.251538,-0.01502 0.388223,-0.01129 0.594354,0.05201 1.201519,0.005 1.787026,0.08695 0.150914,0.02113 0.923575,0.183139 0.950757,0.167917 0.0093,-0.0052 -0.03484,-0.08213 -0.03982,-0.0979 -0.05009,-0.158631 -0.05834,-0.330352 -0.0896,-0.492801 C 22.241887,9.924554 22.17328,9.2991692 22.17328,8.6610368 c 0,-0.3195894 -0.04676,-0.6333196 -0.02987,-0.9520846 0.0062,-0.1162994 0.01056,-0.2195687 0,-0.3361666 -0.0034,-0.037273 0.04497,-0.098608 0.01,-0.1118343 -0.515625,-0.1947924 -1.303243,-0.057606 -1.866669,-0.078318 -0.783753,-0.028811 -1.563973,-0.035459 -2.349515,-0.028207 -0.563635,0.0052 -1.127247,0.094854 -1.692448,0.086945 -0.670697,-0.0094 -1.345361,-0.074719 -2.01594,-0.1065431 C 13.546616,7.1024514 12.895815,7.0553563 12.227768,6.9304071 12.155,6.9167969 12.015985,6.9391807 11.95399,6.9025314 11.813119,6.8192546 11.685189,6.7158091 11.550789,6.622448 Z"
       id="path12"
       sodipodi:nodetypes="ccsscscscsccsccssccsscccccscscccsscsssc" />
    <path
       style="fill:#000000;fill-opacity:1;stroke:#000000;stroke-width:0.2;stroke-linecap:round;stroke-dashoffset:721.861"
       d="m 27.624063,8.1987471 c -2.09404,0.7785772 -2.804159,2.6544159 -2.583471,4.7882999 0.161611,1.562655 0.378564,2.51412 1.538137,3.614536 0.550413,0.522336 1.155041,0.886319 1.951291,0.851202 0.39795,-0.01755 0.72027,-0.629235 0.900981,-0.898656 0.966679,-1.441231 0.969106,-3.942014 0.921859,-5.619232 C 30.339419,10.45772 30.289704,10.122469 30.11418,9.9285352 29.817669,9.600925 29.389041,9.3542823 29.172156,9.0194182 28.842135,8.5098758 28.084067,8.1067463 27.624065,8.1987467 Z"
       id="path13"
       sodipodi:nodetypes="sssscsssss" />
    <path
       style="fill:#eeff99;fill-opacity:1;stroke:#000000;stroke-width:0.2;stroke-linecap:round;stroke-dashoffset:721.861"
       d="m 27.643973,9.8397575 c -0.51726,0.5081975 -0.943657,1.0693665 -1.060267,1.8085965 -0.05912,0.374766 -0.0442,0.757257 -0.0199,1.134271 0.05181,0.804131 0.45561,2.216976 1.563024,1.875962 0.24308,-0.07485 0.423462,-0.410092 0.597333,-0.576759 0.204092,-0.195633 0.553509,-0.418297 0.686935,-0.674988 0.389121,-0.748593 0.316516,-1.447801 -0.02987,-2.209142 -0.472416,-1.038361 -0.565846,-1.2531809 -1.737249,-1.3579405 z"
       id="path14" />
    <path
       style="fill:#000000;fill-opacity:1;stroke:#000000;stroke-width:0.2;stroke-linecap:round;stroke-dashoffset:721.861"
       d="m 50.596551,15.364106 c -0.07983,-1.263608 -0.38652,-2.462807 -0.696892,-3.68489 -0.153572,-0.604698 -0.266837,-1.217552 -0.452977,-1.8142377 -0.205743,-0.6595176 -0.523854,-1.26151 -0.871114,-1.8563827 0.90671,0.5658081 1.711095,-0.00184 2.65814,-0.078649 0.808451,-0.065565 2.665784,0.2725248 3.37494,0.6384842 0.2872,0.1482094 1.362166,1.4226169 1.582936,1.7920032 0.146464,0.24506 0.252541,0.54504 0.303645,0.825981 0.145959,0.802401 -0.129493,1.443522 -0.418134,2.167329 -0.209242,0.524702 -0.271301,1.139648 -0.532623,1.640678 -0.27127,0.520101 -0.771012,0.893097 -1.164803,1.31314 -0.441039,0.470442 -0.863478,0.966453 -1.244446,1.484045 -0.374701,0.509076 -0.563239,1.208989 -1.309158,1.120002 -0.04277,-0.0051 -0.230237,0.03734 -0.243912,0.02821 C 51.435841,18.842069 51.303395,18.725 51.164016,18.61759 Z"
       id="path17"
       sodipodi:nodetypes="csscsssssssssccc" />
    <path
       style="fill:#eeff99;fill-opacity:1;stroke:#000000;stroke-width:0.2;stroke-linecap:round;stroke-dashoffset:721.861"
       d="m 51.646864,15.019643 c -0.336571,-0.63855 -0.104982,-1.24884 -0.179202,-1.923417 -0.03736,-0.339578 -0.191054,-0.726659 -0.278754,-1.055623 -0.150249,-0.563602 -0.32358,-1.119876 -0.462934,-1.68581 0.565836,-0.102692 1.294246,-0.8836024 1.886581,-0.8764226 0.253267,0.00307 0.575442,0.1571389 0.796446,0.2578494 0.749025,0.3413272 1.604678,0.9306762 1.572981,1.8703202 -0.02153,0.638283 -0.305206,1.410885 -0.69689,1.920762 -0.282684,0.367985 -0.601408,0.641453 -0.81138,1.069561 -0.129453,0.26394 -0.300239,0.464231 -0.452978,0.71116 -0.145135,0.234634 -0.222055,0.475235 -0.38329,0.70585 -0.01808,0.02585 -0.11008,0.228168 -0.1344,0.232297 z"
       id="path18"
       sodipodi:nodetypes="csscssssssscc" />
    <path
       style="fill:#040500;fill-opacity:1;stroke:#000000;stroke-width:0.2;stroke-linecap:round;stroke-dashoffset:721.861"
       d="m 62.732395,8.4426588 c -1.321734,-0.079997 -2.555401,1.0984161 -3.220627,2.1447622 -0.501544,0.788885 -0.988139,1.947812 -0.866135,2.909019 0.0683,0.538053 0.564928,1.489186 0.96569,1.865011 0.59559,0.55853 1.872011,1.11299 2.688005,1.15916 0.517832,0.0293 1.04516,-0.18035 1.488358,-0.428421 1.218687,-0.682134 2.777117,-2.074229 3.026495,-3.53091 0.07918,-0.462502 -0.01431,-1.065017 -0.194133,-1.489686 C 66.25556,10.2108 64.755111,8.5070541 63.683152,8.3752927 63.414518,8.342273 62.988761,8.439319 62.732395,8.4426588 Z"
       id="path19" />
    <path
       style="fill:#eeff99;fill-opacity:1;stroke:#000000;stroke-width:0.2;stroke-linecap:round;stroke-dashoffset:721.861"
       d="m 62.199773,10.038537 c -1.017058,0.430635 -1.511818,0.665202 -1.677516,1.856383 -0.08808,0.633218 0.02056,1.146499 0.263824,1.724637 0.147597,0.35079 0.317095,0.685307 0.721778,0.772885 0.686488,0.148563 1.48734,0.07015 2.099874,-0.05011 0.292179,-0.05737 0.576322,-0.230658 0.787298,-0.441649 0.451307,-0.45134 0.995003,-1.322842 0.98057,-1.907863 -0.005,-0.201834 -0.07766,-0.510813 -0.189156,-0.680297 -0.03027,-0.04601 -1.428768,-1.151182 -1.572982,-1.220885 -0.246062,-0.1189306 -0.684639,-0.1082526 -0.952582,-0.08778 -0.06151,0.0047 -0.577884,0.104215 -0.457464,0.02126"
       id="path20"
       sodipodi:nodetypes="cssssscsssc" />
    <g
       id="g51"
       style="fill:#eeff99;fill-opacity:1">
      <path
         style="fill:#eeff99;fill-opacity:1;stroke:#000000;stroke-width:0.2;stroke-linecap:round;stroke-dashoffset:721.861"
         d="m 10.122164,18.741037 c 0.230318,-0.43959 0.586016,-0.673657 0.965691,-0.952085"
         id="path35" />
      <g
         id="g47"
         style="fill:#eeff99;fill-opacity:1">
        <path
           style="fill:#eeff99;fill-opacity:1;stroke:#000000;stroke-width:0.2;stroke-linecap:round;stroke-dashoffset:721.861"
           d="m 8.648739,21.549172 c 0.4658667,-0.213187 0.3314391,-0.09815 0.6570679,-0.42809 0.1848075,-0.187256 0.3703714,-0.373979 0.5475568,-0.568463 0.034033,-0.03736 0.6875883,-0.919155 0.8064013,-0.851202 0.423412,0.242162 0.365828,1.243751 0.438045,1.6211 0.02672,0.139613 0.07817,0.557302 0.333512,0.588042 0.423628,0.051 0.711627,-0.570736 1.115024,-0.509725 0.374962,0.05671 0.261706,0.478693 0.736713,0.316587 0.07214,-0.02462 0.335293,-0.294517 0.393245,-0.221345 0.255239,0.322271 0.09341,1.2445 0.502757,1.41701 0.667722,0.281397 1.651353,-1.393929 2.354493,-1.531831 0.303297,-0.05948 0.234794,0.707745 0.467912,0.786822 0.384703,0.130497 0.85157,-0.617817 1.21458,-0.699877 0.347576,-0.07857 0.602925,0.216456 1.115024,0.07832 0.339725,-0.09164 0.756873,-0.413396 1.12498,-0.37798 0.249791,0.02403 0.292321,0.309139 0.452979,0.439705 0.165749,0.134704 0.89536,-0.06223 1.254402,0.03352 0.449788,0.119943 0.629582,0.637389 1.040357,0.795118 0.0605,0.02323 2.431114,0.05102 2.732805,0 0.361843,-0.06119 0.685803,-0.284154 1.045335,-0.330193 0.320492,-0.04104 0.472278,0.376761 0.74169,0.47289 0.347485,0.123984 0.671288,-0.105167 1.015471,-0.114489 0.218204,-0.0059 0.411623,0.116813 0.622223,0.111834 0.509072,-0.01204 0.84799,-0.274942 1.284269,-0.501097 0.47511,-0.246285 0.954217,-0.453521 1.458492,-0.630188"
           id="path21" />
        <ellipse
           style="fill:#eeff99;fill-opacity:1;stroke:#000000;stroke-width:0.2;stroke-linecap:round;stroke-dashoffset:721.861"
           id="path39"
           cx="7.7482538"
           cy="21.401838"
           rx="0.21465079"
           ry="0.2285541" />
      </g>
    </g>
    <g
       id="g46"
       transform="translate(-0.19886996,-0.00132146)"
       style="fill:#eeff99;fill-opacity:1">
      <path
         style="fill:#eeff99;fill-opacity:1;stroke:#000000;stroke-width:0.2;stroke-linecap:round;stroke-dashoffset:721.861"
         d="m 8.5292723,25.35187 c 0.2322967,-0.01029 0.4668864,0.0033 0.69689,-0.03086 0.1847455,-0.02743 0.4120647,-0.193396 0.6222235,-0.153979 0.3654832,0.06855 0.2890772,0.747124 0.6471122,0.839918 0.339457,0.08798 0.71407,-0.394461 0.985602,-0.515367 0.497355,-0.221459 0.749358,0.351781 1.274313,0.129091 0.482275,-0.204585 0.957014,-0.73905 1.528181,-0.686271 0.512565,0.04736 0.647089,0.845909 1.12498,0.81503 0.544894,-0.03521 0.993886,-0.41512 1.543114,-0.453643 0.614293,-0.04309 0.966256,0.482548 1.513247,0.624215 0.237294,0.06146 0.48934,0.03654 0.731735,0.07301 0.238366,0.03586 0.847675,0.156482 1.090135,0.162276 0.725732,0.01734 1.246761,-0.606921 1.896537,-0.495456 0.67529,0.115843 0.83969,0.798547 1.433603,0.806403 0.246786,0.0033 0.41616,-0.04836 0.657068,-0.05608 0.506538,-0.01623 0.921439,0.180086 1.443558,0.05874 0.742678,-0.17261 1.50064,-0.64329 2.259915,-0.37798"
         id="path22" />
      <ellipse
         style="fill:#eeff99;fill-opacity:1;stroke:#000000;stroke-width:0.2;stroke-linecap:round;stroke-dashoffset:721.861"
         id="path40"
         cx="7.928586"
         cy="25.163067"
         rx="0.19611302"
         ry="0.22603156" />
    </g>
    <g
       id="g45"
       transform="translate(-1.0226269,-0.82243261)"
       style="fill:#eeff99;fill-opacity:1">
      <path
         style="fill:#eeff99;fill-opacity:1;stroke:#000000;stroke-width:0.2;stroke-linecap:round;stroke-dashoffset:721.861"
         d="m 9.2908735,29.84283 c 0.7342795,0.262459 1.2123105,-0.418184 1.8816035,-0.518022 0.717196,-0.106985 0.808865,0.734208 1.314136,0.985602 0.329877,0.164129 0.903665,-0.205238 1.229513,-0.285393 0.648662,-0.159568 1.086525,0.348049 1.717337,0.131413 0.492307,-0.169071 0.854069,-0.584666 1.408713,-0.624215 0.370683,-0.02643 0.665315,0.157794 1.015469,0.224001 0.415864,0.07863 0.777188,-0.01789 1.184713,0.170572 0.303372,0.140295 0.5802,0.566496 0.960713,0.495786 0.111432,-0.02072 0.515447,-0.237355 0.637157,-0.282736 0.256901,-0.09579 0.459647,0.0689 0.74169,-0.06438 0.250551,-0.118401 0.314958,-0.249867 0.602312,-0.274442 0.24836,-0.02125 0.44296,0.209399 0.716802,0.1792 0.425432,-0.04691 0.778151,-0.248521 1.219558,-0.212717 0.472219,0.0383 0.596876,0.175741 1.105068,0.162277 0.320864,-0.0085 0.641879,-0.05025 0.955736,-0.117475 0.476601,-0.102087 0.831891,-0.397441 1.334046,-0.297008"
         id="path23" />
      <ellipse
         style="fill:#eeff99;fill-opacity:1;stroke:#000000;stroke-width:0.2;stroke-linecap:round;stroke-dashoffset:721.861"
         id="path41"
         cx="8.6858768"
         cy="29.711094"
         rx="0.12964696"
         ry="0.1571016" />
    </g>
    <g
       id="g50"
       transform="translate(-0.64072563,-0.58277041)"
       style="fill:#eeff99;fill-opacity:1">
      <path
         style="fill:#eeff99;fill-opacity:1;stroke:#000000;stroke-width:0.2;stroke-linecap:round;stroke-dashoffset:721.861"
         d="m 17.987068,32.17542 c 0.03884,0.100444 -0.185218,0.914382 0.01,0.374994"
         id="path36" />
      <g
         id="g44"
         style="fill:#eeff99;fill-opacity:1">
        <path
           style="fill:#eeff99;fill-opacity:1;stroke:#000000;stroke-width:0.2;stroke-linecap:round;stroke-dashoffset:721.861"
           d="m 8.9075841,33.513781 c 0.1261039,0.02146 0.2511864,0.07859 0.3783118,0.06438 0.3669877,-0.04102 0.673227,-0.642154 1.0752021,-0.397557 0.454263,0.276413 0.58696,1.098362 1.224535,1.033055 0.705834,-0.0723 1.077161,-0.448686 1.816893,-0.128757 0.288597,0.124814 0.760421,0.766392 1.149869,0.674986 0.513004,-0.120404 0.829416,-0.615674 1.368891,-0.714144 0.310661,-0.05671 0.520256,0.203864 0.806402,0.226655 0.468204,0.03729 0.869946,-0.275886 1.363913,-0.21272 0.487118,0.06229 0.840276,0.469273 1.329069,0.481518 0.635586,0.01593 1.188683,-0.31096 1.851737,-0.243578 0.896103,0.09106 1.494245,0.665395 2.434138,0.434062 0.479,-0.117893 0.7763,-0.562962 1.149869,-0.842573 0.06375,-0.04772 2.037225,-1.016757 2.13547,-1.030402"
           id="path24" />
        <ellipse
           style="fill:#eeff99;fill-opacity:1;stroke:#000000;stroke-width:0.2;stroke-linecap:round;stroke-dashoffset:721.861"
           id="path42"
           cx="8.2623243"
           cy="33.454311"
           rx="0.087995678"
           ry="0.210251" />
      </g>
    </g>
    <g
       id="g49"
       transform="translate(0.14055866)"
       style="fill:#eeff99;fill-opacity:1">
      <g
         id="g43"
         style="fill:#eeff99;fill-opacity:1">
        <path
           style="fill:#eeff99;fill-opacity:1;stroke:#000000;stroke-width:0.2;stroke-linecap:round;stroke-dashoffset:721.861"
           d="m 8.3202051,38.61535 c 0.5263227,-0.30421 1.3131909,-1.645619 2.0010709,-1.455838 0.664075,0.183213 0.5013,1.240533 1.134935,1.458491 0.451298,0.155239 1.052122,-0.129931 1.523203,-0.0896 0.35825,0.03067 1.013558,0.547566 1.279291,0.470567 0.543055,-0.157361 0.763245,-0.893318 1.159825,-1.243121 0.453535,-0.400042 0.255463,1.401603 1.030401,0.733393 0.229796,-0.198147 0.734508,-1.112512 1.100091,-1.145223 0.234749,-0.02101 0.337346,0.398161 0.527646,0.484505 0.294168,0.133475 0.666296,-0.323532 0.990579,-0.3136 0.60594,0.01855 0.492907,0.606481 0.831291,0.747663 0.317283,0.132381 0.882239,-0.561684 1.154847,-0.669346 0.281907,-0.111337 0.45632,0.05205 0.721779,0.03916 0.389778,-0.01894 -0.114011,-0.09817 0.438045,-0.08661 0.137576,0.0029 0.274774,0.02798 0.408178,0.06173 0.07642,0.01934 0.827737,0.289325 0.930847,0.304975 0.38721,0.05877 0.548866,-0.31745 0.826312,-0.484175 0.327802,-0.196985 0.124486,0.02596 0.507734,-0.277428 0.322601,-0.255371 0.605582,-0.767094 1.005513,-0.90994 0.614146,-0.219358 0.938391,0.317704 1.602847,0.03916"
           id="path25" />
      </g>
      <g
         id="g48"
         style="fill:#eeff99;fill-opacity:1">
        <path
           style="fill:#eeff99;fill-opacity:1;stroke:#000000;stroke-width:0.2;stroke-linecap:round;stroke-dashoffset:721.861"
           d="m 15.353818,36.815051 c -0.07541,-0.422905 -0.16345,-0.682477 0,0 z"
           id="path37" />
        <ellipse
           style="fill:#eeff99;fill-opacity:1;stroke:#000000;stroke-width:0.2;stroke-linecap:round;stroke-dashoffset:721.861"
           id="path43"
           cx="7.6205425"
           cy="38.504032"
           rx="0.22749816"
           ry="0.31965894" />
      </g>
    </g>
    <g
       id="g57"
       transform="translate(-0.31924909)"
       style="fill:#eeff99;fill-opacity:1">
      <path
         style="fill:#eeff99;fill-opacity:1;stroke:#000000;stroke-width:0.2;stroke-linecap:round;stroke-dashoffset:721.861"
         d="m 49.944461,22.82614 c 0.740106,1.254091 1.078236,-0.634684 1.662581,-0.579746 0.327917,0.03083 0.226028,0.691319 0.701868,0.649767 0.658561,-0.05751 1.099413,-0.837718 1.752179,-0.823326 0.349475,0.0077 0.899645,0.6075 1.378847,0.71116 0.734447,0.158873 1.243912,-0.522372 1.876626,-0.46758 0.313542,0.02715 0.542365,0.355108 0.871115,0.344463 0.632526,-0.02048 1.088009,-0.580666 1.712356,-0.649435 0.228069,-0.02512 0.367306,0.239876 0.592358,0.25453 0.541827,0.03528 1.04054,-0.293363 1.607825,-0.234951 0.353991,0.03645 0.763299,0.307951 1.124982,0.229642 0.367408,-0.07955 0.608949,-0.426456 1.005512,-0.420126 0.408508,0.0065 0.688022,0.272416 1.159824,0.280084 0.671714,0.01092 1.251339,-0.06893 1.911469,0.100551"
         id="path29" />
      <ellipse
         style="fill:#eeff99;fill-opacity:1;stroke:#000000;stroke-width:0.2;stroke-linecap:round;stroke-dashoffset:721.861"
         id="path51"
         cx="48.909405"
         cy="22.892485"
         rx="0.24181211"
         ry="0.12108205" />
    </g>
    <g
       id="g56"
       transform="translate(-0.45171019,-0.06723178)"
       style="fill:#eeff99;fill-opacity:1">
      <path
         style="fill:#eeff99;fill-opacity:1;stroke:#000000;stroke-width:0.2;stroke-linecap:round;stroke-dashoffset:721.861"
         d="m 49.874773,26.606272 c 0.305302,-0.06814 0.609327,-0.142288 0.91591,-0.204421 1.024419,-0.207616 0.289965,0.704142 0.950759,0.593351 0.445654,-0.07472 0.831599,-0.433824 1.309159,-0.361053 0.502192,0.07652 0.640106,0.877033 1.219557,0.78682 0.515961,-0.08033 0.855419,-0.58656 1.299202,-0.812043 0.368461,-0.187211 0.561755,0.353851 0.910934,0.319243 0.48787,-0.04836 0.868638,-0.396322 1.383826,-0.380968 0.341323,0.01016 0.411475,0.220829 0.681956,0.327872 0.178797,0.07076 0.3893,-0.04506 0.567468,0.06139 0.199443,0.119169 0.241493,0.579768 0.532624,0.557181 0.784225,-0.06084 1.085879,-1.843248 1.717337,-1.699416 0.295042,0.0672 0.253793,0.497614 0.512712,0.565476 0.386236,0.101234 0.749247,-0.571507 1.134935,-0.207076 0.256948,0.242788 0.602814,1.230092 0.632177,1.234823 0.250013,0.04028 0.943885,-0.614082 1.319115,-0.716801 0.660334,-0.180764 1.311748,-0.180015 1.98116,-0.280083 0.653246,-0.09765 1.329698,-0.348458 1.986137,-0.294021"
         id="path30" />
      <path
         style="fill:#eeff99;fill-opacity:1;stroke:#000000;stroke-width:0.2;stroke-linecap:round;stroke-dashoffset:721.861"
         d="m 69.33294,26.569768 c 0.497779,-0.433178 0.497779,-0.433178 0,0 z"
         id="path38" />
      <ellipse
         style="fill:#eeff99;fill-opacity:1;stroke:#000000;stroke-width:0.2;stroke-linecap:round;stroke-dashoffset:721.861"
         id="path52"
         cx="49.083282"
         cy="26.728159"
         rx="0.28322873"
         ry="0.21130694" />
    </g>
    <g
       id="g55"
       transform="translate(0.68589532,-0.09088381)"
       style="fill:#eeff99;fill-opacity:1">
      <path
         style="fill:#eeff99;fill-opacity:1;stroke:#000000;stroke-width:0.2;stroke-linecap:round;stroke-dashoffset:721.861"
         d="m 48.784636,31.024554 c 0.881415,0.553575 1.408121,0.204701 2.105605,-0.501097 0.132273,-0.13385 0.254794,-0.277002 0.383288,-0.414483 0.04076,-0.04361 0.06476,-0.129693 0.124445,-0.128759 0.25632,0.004 -0.463082,1.907513 0.776536,1.942997 0.563136,0.01611 1.113536,-0.459275 1.68747,-0.509395 0.564761,-0.04931 0.694187,0.554236 1.08018,0.453644 0.607163,-0.158231 0.950026,-0.857263 1.568003,-1.047326 0.814075,-0.250378 0.75529,0.4909 1.314135,0.495456 0.36676,0.003 0.682127,-0.317961 0.975646,-0.453311 0.619043,-0.285459 0.982503,-0.364143 1.632714,-0.333179 0.299707,0.01426 0.644155,0.04619 0.910934,0.20973 0.269976,0.165497 0.304104,0.46749 0.512712,0.677643 0.212188,0.213759 0.476674,0.213193 0.741691,0.305302 0.128958,0.04482 0.309531,0.205873 0.462933,0.156636 0.671232,-0.215434 1.133147,-0.935317 1.752182,-1.268341 0.675815,-0.363569 1.417984,-0.309131 2.155384,-0.347117"
         id="path31" />
      <ellipse
         style="fill:#eeff99;fill-opacity:1;stroke:#000000;stroke-width:0.2;stroke-linecap:round;stroke-dashoffset:721.861"
         id="path53"
         cx="47.881557"
         cy="31.129232"
         rx="0.21910924"
         ry="0.30071056" />
    </g>
    <g
       id="g54"
       style="fill:#eeff99;fill-opacity:1">
      <path
         style="fill:#eeff99;fill-opacity:1;stroke:#000000;stroke-width:0.2;stroke-linecap:round;stroke-dashoffset:721.861"
         d="m 49.56117,36.534965 c 0.594016,-0.570232 1.170101,-1.15975 1.782048,-1.710698 0.883907,-0.795797 0.51213,1.679231 1.124979,1.618443 0.702617,-0.06969 1.219266,-0.774718 1.956271,-0.806399 0.583544,-0.02508 0.534588,1.256789 1.040358,1.097436 0.657444,-0.207145 0.960683,-1.153687 1.677514,-1.273982 0.76427,-0.128257 0.400875,1.276321 0.950759,1.394444 0.496038,0.106556 1.323639,-0.697587 1.836803,-0.803749 0.779664,-0.161292 0.735164,0.864415 1.179735,0.78417 0.161494,-0.02915 0.666655,-0.501571 0.711824,-0.531961 0.33995,-0.228719 0.632201,-0.124304 0.960713,-0.280083 0.334021,-0.158395 0.504695,-0.528785 0.836269,-0.677642 0.347289,-0.155914 0.149558,0.676925 0.642133,-0.0056"
         id="path32" />
      <path
         style="fill:#eeff99;fill-opacity:1;stroke:#000000;stroke-width:0.2;stroke-linecap:round;stroke-dashoffset:721.861"
         d="m 65.679245,35.857322 c 0.504415,0.283623 0.504415,0.283623 0,0 z"
         id="path33" />
      <path
         style="fill:#eeff99;fill-opacity:1;stroke:#000000;stroke-width:0.2;stroke-linecap:round;stroke-dashoffset:721.861"
         d="m 56.78394,34.294961 c 0.128659,0.05749 0.275437,0.05973 0.413155,0.0896"
         id="path34" />
      <ellipse
         style="fill:#eeff99;fill-opacity:1;stroke:#000000;stroke-width:0.2;stroke-linecap:round;stroke-dashoffset:721.861"
         id="path54"
         cx="48.631279"
         cy="36.343796"
         rx="0.28293544"
         ry="0.36682463" />
    </g>
  </g>
</svg>
