<?xml version="1.0" encoding="UTF-8" standalone="no"?>
<!-- Created with Inkscape (http://www.inkscape.org/) -->

<svg
   width="19mm"
   height="21mm"
   viewBox="0 0 19 21"
   version="1.1"
   id="svg1"
   inkscape:version="1.3.2 (091e20ef0f, 2023-11-25)"
   sodipodi:docname="dspeak.svg"
   xmlns:inkscape="http://www.inkscape.org/namespaces/inkscape"
   xmlns:sodipodi="http://sodipodi.sourceforge.net/DTD/sodipodi-0.dtd"
   xmlns="http://www.w3.org/2000/svg"
   xmlns:svg="http://www.w3.org/2000/svg">
  <sodipodi:namedview
     id="namedview1"
     pagecolor="#ffffff"
     bordercolor="#000000"
     borderopacity="0.25"
     inkscape:showpageshadow="2"
     inkscape:pageopacity="0.0"
     inkscape:pagecheckerboard="0"
     inkscape:deskcolor="#d1d1d1"
     inkscape:document-units="mm"
     inkscape:zoom="4.4044578"
     inkscape:cx="37.80261"
     inkscape:cy="53.014471"
     inkscape:window-width="1914"
     inkscape:window-height="1047"
     inkscape:window-x="0"
     inkscape:window-y="0"
     inkscape:window-maximized="1"
     inkscape:current-layer="layer1" />
  <defs
     id="defs1" />
  <g
     inkscape:label="Layer 1"
     inkscape:groupmode="layer"
     id="layer1">
    <g
       id="g9"
       transform="translate(-10.762927,-1.6439939)">
      <path
         id="path1"
         style="fill:#040500;stroke:#000000;stroke-width:0.2;stroke-linecap:round;stroke-dashoffset:721.861"
         d="m 20.244103,7.1712779 a 4.9343143,4.633656 0 0 0 -4.696355,3.2333951 4.1843114,2.3875573 0 0 1 0.346232,-0.01292 4.1843114,2.3875573 0 0 1 4.184241,2.387451 4.1843114,2.3875573 0 0 1 -3.279386,2.326473 4.9343143,4.633656 0 0 0 3.445268,1.332735 4.9343143,4.633656 0 0 0 4.934582,-4.633309 4.9343143,4.633656 0 0 0 -4.934582,-4.6338251 z" />
      <ellipse
         style="fill:#040500;stroke:#000000;stroke-width:0.2;stroke-linecap:round;stroke-dashoffset:721.861"
         id="path2"
         cx="22.439631"
         cy="7.0326729"
         rx="0.79093444"
         ry="3.2825906" />
      <ellipse
         style="fill:#040500;stroke:#000000;stroke-width:0.2;stroke-linecap:round;stroke-dashoffset:721.861"
         id="path3"
         cx="18.696999"
         cy="6.7259789"
         rx="0.19755028"
         ry="1.1130279" />
      <path
         sodipodi:type="spiral"
         style="fill:none;fill-rule:evenodd;stroke:#000000;stroke-width:0.264583"
         id="path8"
         sodipodi:cx="16.842842"
         sodipodi:cy="12.780257"
         sodipodi:expansion="1"
         sodipodi:revolution="6.7124662"
         sodipodi:radius="15.115931"
         sodipodi:argument="-17.535566"
         sodipodi:t0="0"
         d="m 16.842842,12.780257 c 0.08603,0.327615 -0.399172,0.277605 -0.544517,0.142993 -0.393876,-0.364789 -0.128084,-0.986951 0.258531,-1.232028 0.691563,-0.438383 1.577872,-0.01943 1.919538,0.660056 0.50141,0.997169 -0.08787,2.178463 -1.06158,2.607049 -1.297805,0.571237 -2.782704,-0.194309 -3.294559,-1.463104 -0.644117,-1.59665 0.300252,-3.388739 1.864629,-3.9820701 1.894669,-0.7186033 3.995793,0.4058968 4.66958,2.2661531 0.794034,2.192247 -0.511353,4.603485 -2.667677,5.35709 -2.489562,0.870067 -5.211604,-0.616682 -6.044601,-3.069201 -0.946505,-2.786708 0.721924,-5.8200197 3.470725,-6.7321117 3.08374,-1.0232293 6.428654,0.8271031 7.419622,3.8722497 1.100163,3.38069 -0.932234,7.037451 -4.273774,8.107133 -3.677581,1.177255 -7.646373,-1.037331 -8.794643,-4.675299 -1.2544683,-3.974427 1.142398,-8.2553942 5.076823,-9.4821532 4.271239,-1.3317781 8.864495,1.2474438 10.169664,5.4783472 1.409165,4.568022 -1.352472,9.47366 -5.879871,10.857174 C 14.265947,22.97915 9.047853,20.035051 7.5860465,15.21114 6.0219307,10.049612 9.1485319,4.5189989 14.268966,2.9789442 19.727224,1.3372838 25.570407,4.6464204 27.188672,10.063388 28.907914,15.818362 25.416214,21.97416 19.702704,23.670605 13.651024,25.467458 7.1825735,21.793172 5.4079769,15.783112 3.5334849,9.4347348 7.3903788,2.6535997 13.696994,0.80087466 20.342061,-1.151279 27.435909,2.8882396 29.366742,9.4914161 31.396577,16.433166 27.174419,23.839751 20.274676,25.848675 13.036249,27.956209 5.3169051,23.551397 3.2299074,16.355085 1.0446582,8.819985 5.6321355,0.78786334 13.125022,-1.3771949 19.666778,-3.2674254 26.81077,-0.27062378 30.161309,5.631146"
         transform="matrix(0.68745424,0,0,0.70617317,9.0583549,3.176703)" />
    </g>
  </g>
</svg>
